<svg width="120" height="31" viewBox="0 0 120 31" fill="none" xmlns="http://www.w3.org/2000/svg">
<path d="M68.1959 7.94414C69.7791 7.94414 71.3299 7.94414 72.9424 7.94414C72.9424 8.40216 72.9424 8.82496 72.9424 9.24163C73.0519 9.25082 73.1183 9.27686 73.1461 9.25388C76.6565 6.43525 81.2564 7.00664 83.9383 10.5989C86.8825 14.5419 85.9566 20.5177 82.0218 23.2214C79.8646 24.7027 75.8881 25.3262 72.9933 22.5887C72.9933 25.2618 72.9933 27.8538 72.9933 30.4993C71.3561 30.4993 69.8053 30.4993 68.1943 30.4993C68.1959 22.984 68.1959 15.487 68.1959 7.94414ZM80.8429 15.9757C80.8429 13.5615 79.2643 11.9729 76.8757 11.9821C74.5286 11.9913 72.9624 13.5753 72.9563 15.9466C72.9485 18.3868 74.4885 19.9616 76.8849 19.9631C79.2998 19.9662 80.8444 18.4098 80.8429 15.9757Z" fill="white"/>
<path d="M65.4891 17.9118C61.6499 17.9118 57.8555 17.9118 54.0595 17.9118C54.1027 19.92 58.32 21.3738 61.1052 19.0653C62.3304 19.7638 63.571 20.47 64.9799 21.2711C64.2685 21.913 63.6883 22.5579 62.9939 23.042C59.5945 25.4056 54.0348 24.8726 51.1231 21.9436C48.6248 19.4314 48.0462 15.1835 49.7544 11.8916C51.3607 8.79566 54.9591 7.03708 58.5314 7.51809C64.3225 8.29781 66.5044 13.8431 65.4891 17.9118ZM60.866 14.292C60.5451 12.6437 59.1825 11.6664 57.2984 11.6939C55.4961 11.7215 54.1444 12.7433 53.9021 14.292C56.2245 14.292 58.5406 14.292 60.866 14.292Z" fill="white"/>
<path d="M111.454 19.7253C110.478 21.0948 109.603 22.3479 108.692 23.5734C108.535 23.7848 108.229 24.0115 107.986 24.0161C106.345 24.0544 104.704 24.036 102.909 24.036C103.108 23.7327 103.242 23.5121 103.392 23.3022C105.029 20.9983 106.657 18.6883 108.319 16.4027C108.631 15.9754 108.615 15.7057 108.308 15.2829C106.705 13.0801 105.139 10.8497 103.563 8.62701C103.423 8.4294 103.302 8.21647 103.105 7.90091C104.913 7.90091 106.595 7.88406 108.277 7.92235C108.49 7.92695 108.746 8.1889 108.896 8.39264C109.737 9.54 110.553 10.7073 111.453 11.9741C112.278 10.8114 113.084 9.74067 113.814 8.62241C114.173 8.07094 114.57 7.85495 115.244 7.88099C116.723 7.9392 118.204 7.89938 119.807 7.89938C119.597 8.22873 119.463 8.46157 119.307 8.68063C117.759 10.8605 116.23 13.0541 114.644 15.2064C114.266 15.7195 114.317 16.0351 114.667 16.5161C116.301 18.7587 117.895 21.0305 119.503 23.2931C119.647 23.4953 119.781 23.7051 120 24.0283C118.159 24.0283 116.429 24.0437 114.703 24.0069C114.521 24.0023 114.309 23.722 114.17 23.5274C113.278 22.2958 112.4 21.0519 111.454 19.7253Z" fill="white"/>
<path d="M35.0955 10.8991C33.7453 11.6206 32.4399 12.3191 31.0758 13.0467C30.4956 12.1 29.6978 11.547 28.5359 11.6772C28.019 11.7355 27.5499 11.8764 27.4388 12.4493C27.3261 13.0283 27.7628 13.2765 28.2103 13.4297C28.9603 13.6855 29.738 13.8617 30.4879 14.119C31.3582 14.4177 32.264 14.672 33.0617 15.1101C36.0553 16.7538 36.3454 21.0002 33.645 23.0728C30.6191 25.3951 24.956 24.8696 22.5858 22.0326C22.2664 21.6497 22.018 21.21 21.6877 20.7259C23.1228 19.9171 24.473 19.1558 25.8216 18.396C26.8169 19.9661 27.8029 20.4747 29.3337 20.2051C29.8429 20.1163 30.3814 19.9937 30.4802 19.3657C30.5836 18.6993 30.0651 18.4818 29.5775 18.3163C28.681 18.0146 27.7582 17.7832 26.8617 17.4799C26.209 17.2593 25.5516 17.0204 24.9436 16.7002C22.2926 15.3047 21.6137 12.0173 23.4654 9.67357C26.1827 6.23607 33.0509 6.91315 35.0955 10.8991Z" fill="white"/>
<path d="M47.0234 19.7763C47.0234 21.2101 47.0234 22.5735 47.0234 24.041C44.8631 24.2432 42.7136 24.4331 40.7724 23.2199C39.3821 22.3513 38.9747 20.9098 38.913 19.3948C38.8312 17.3912 38.8497 15.3829 38.8266 13.3777C38.8235 13.105 38.8266 12.8323 38.8266 12.4953C37.9578 12.4953 37.1709 12.4953 36.3145 12.4953C36.3145 10.9543 36.3145 9.47603 36.3145 7.9028C37.1261 7.9028 37.9331 7.9028 38.8266 7.9028C38.8266 7.00513 38.8019 6.19784 38.842 5.39361C38.8528 5.16536 39.004 4.80078 39.1738 4.74563C40.6304 4.27229 42.1072 3.85562 43.6734 3.39453C43.6734 4.92946 43.6734 6.36635 43.6734 7.87676C44.8122 7.87676 45.8784 7.87676 47.0003 7.87676C47.0003 9.41322 47.0003 10.8731 47.0003 12.4448C45.9432 12.4448 44.8585 12.4448 43.6718 12.4448C43.6718 13.5079 43.6718 14.4638 43.6718 15.4197C43.6718 16.3602 43.6595 17.2992 43.6765 18.2398C43.6934 19.1145 44.0036 19.4806 44.8708 19.6568C45.2211 19.7273 45.5822 19.7502 45.9402 19.7701C46.2735 19.7901 46.6068 19.7763 47.0234 19.7763Z" fill="white"/>
<path d="M92.6045 24.0141C90.9828 24.0141 89.4459 24.0141 87.8503 24.0141C87.8503 16.1817 87.8503 8.37071 87.8503 0.5C89.4135 0.5 90.9859 0.5 92.6045 0.5C92.6045 8.32628 92.6045 16.1357 92.6045 24.0141Z" fill="white"/>
<path d="M95.8879 23.9751C95.8879 18.6366 95.8879 13.3164 95.8879 7.94727C97.4773 7.94727 99.0266 7.94727 100.633 7.94727C100.633 13.2781 100.633 18.5952 100.633 23.9751C99.0744 23.9751 97.5035 23.9751 95.8879 23.9751Z" fill="white"/>
<path d="M101.153 3.53311C101.147 5.07417 99.8165 6.38544 98.2549 6.39004C96.7057 6.3931 95.3493 5.07263 95.3308 3.54077C95.3107 2.0227 96.7643 0.590404 98.2888 0.625637C99.8366 0.659338 101.159 2.00125 101.153 3.53311Z" fill="white"/>
<path d="M18.8642 7.83008H9.37891V12.5115H18.8642V7.83008Z" fill="#00A7E1"/>
<path d="M18.8627 13.623H4.60938V18.3044H18.8627V13.623Z" fill="#F32735"/>
<path d="M18.8625 19.416H0V24.0974H18.8625V19.416Z" fill="#FFDA00"/>
</svg>
